<?xml version="1.0" encoding="utf-8"?>
<!-- Generator: Adobe Illustrator 22.0.1, SVG Export Plug-In . SVG Version: 6.00 Build 0)  -->
<svg version="1.1" id="Layer_1" xmlns="http://www.w3.org/2000/svg" xmlns:xlink="http://www.w3.org/1999/xlink" x="0px" y="0px"
	 viewBox="0 0 26.5 26.6" style="enable-background:new 0 0 26.5 26.6;" xml:space="preserve">
<style type="text/css">
	.st0{fill:#555454;}
</style>
<g>
	<g>
		<g transform="translate(-424.000000, -219.000000)">
			<path class="st0" d="M437.3,222.5L437.3,222.5l-7.1,0c-1.5,0-2.8,1.3-2.8,2.8v14c0,1.5,1.2,2.8,2.8,2.8h14c1.5,0,2.8-1.3,2.8-2.8
				v-5.6h0c0-0.8,0.6-1.4,1.4-1.4c0.8,0,1.4,0.6,1.4,1.4h0v5.6c0,3.1-2.5,5.6-5.6,5.6h-14c-3.1,0-5.6-2.5-5.6-5.6v-14
				c0-3.1,2.5-5.6,5.6-5.6h7.1v0c0.7,0.1,1.3,0.7,1.3,1.4C438.5,221.9,438,222.5,437.3,222.5z M440.8,232.5l1.7,1.7l-4.4,4.4
				c-1.6,1.6-4.2,1-6.1-0.8c-1.9-1.9-2.4-4.5-0.8-6.1l4.4-4.4l1.7,1.7l-4.4,4.4c-0.4,0.4-0.2,1.6,0.8,2.6c1,1,2.2,1.2,2.6,0.8
				L440.8,232.5z M444.2,232.4l-1.7-1.7l4.4-4.4c0.4-0.4,0.2-1.6-0.8-2.6c-1-1-2.2-1.2-2.6-0.8l-4.4,4.4l-1.7-1.7l4.4-4.4
				c1.5-1.5,4.2-1,6.1,0.8c1.9,1.9,2.4,4.5,0.8,6.1L444.2,232.4z M440.8,227.2c0.5-0.5,1.3-0.5,1.7,0c0.5,0.5,0.5,1.2,0,1.7
				l-3.5,3.5c-0.5,0.5-1.3,0.5-1.7,0c-0.5-0.5-0.5-1.2,0-1.7L440.8,227.2z"/>
		</g>
	</g>
</g>
</svg>
